<svg width="231" height="55" viewBox="0 0 231 55" fill="none" xmlns="http://www.w3.org/2000/svg">
<path d="M79.268 36.5298C76.3647 36.5298 74.3887 35.9881 73.34 34.9048C72.3 33.8128 71.78 32.1834 71.78 30.0168H75.472C75.472 31.7154 75.8057 32.8074 76.473 33.2928C77.1403 33.7781 78.0633 34.0208 79.242 34.0208C80.412 34.0208 81.3307 33.8258 81.998 33.4358C82.674 33.0458 83.012 32.4781 83.012 31.7328C83.012 30.8401 82.5743 30.2248 81.699 29.8868C80.8323 29.5401 79.619 29.2021 78.059 28.8728C75.7537 28.3528 74.133 27.7634 73.197 27.1048C72.261 26.4461 71.793 25.3758 71.793 23.8938C71.793 22.4724 72.326 21.2548 73.392 20.2408C74.4667 19.2268 76.408 18.7198 79.216 18.7198C82.05 18.7198 83.9957 19.2788 85.053 20.3968C86.1103 21.5148 86.639 23.0964 86.639 25.1418H82.934C82.934 23.4864 82.5917 22.4204 81.907 21.9438C81.2223 21.4671 80.3123 21.2288 79.177 21.2288C77.9897 21.2288 77.058 21.4324 76.382 21.8398C75.706 22.2471 75.368 22.7931 75.368 23.4778C75.368 24.3704 75.81 24.9901 76.694 25.3368C77.5867 25.6834 78.8 26.0258 80.334 26.3638C82.7087 26.8924 84.3553 27.4601 85.274 28.0668C86.1927 28.6734 86.652 29.7264 86.652 31.2258C86.652 32.6991 86.1277 33.9514 85.079 34.9828C84.039 36.0141 82.102 36.5298 79.268 36.5298ZM89.0938 42.1848V21.0208H91.9278L92.7338 23.5298V42.1848H89.0938ZM97.6348 36.5168C95.8668 36.5168 94.3414 36.0964 93.0588 35.2558C91.7761 34.4064 91.1348 33.4878 91.1348 32.4998L92.7338 30.7968C92.7338 31.6808 93.0934 32.4391 93.8128 33.0718C94.5408 33.7044 95.3944 34.0208 96.3738 34.0208C97.4311 34.0208 98.2501 33.6568 98.8308 32.9288C99.4201 32.1921 99.7148 30.7838 99.7148 28.7038C99.7148 26.6411 99.4201 25.2414 98.8308 24.5048C98.2501 23.7681 97.4311 23.3998 96.3738 23.3998C95.3944 23.3998 94.5408 23.7161 93.8128 24.3488C93.0934 24.9814 92.7338 25.7311 92.7338 26.5978L91.1348 24.9208C91.1348 23.9328 91.7761 23.0141 93.0588 22.1648C94.3414 21.3068 95.8668 20.8778 97.6348 20.8778C99.6281 20.8778 101.088 21.5538 102.016 22.9058C102.943 24.2578 103.407 26.1861 103.407 28.6908C103.407 31.1868 102.943 33.1151 102.016 34.4758C101.088 35.8364 99.6281 36.5168 97.6348 36.5168ZM111.016 36.5818C110.132 36.5818 109.344 36.5081 108.65 36.3608C107.957 36.2048 107.359 35.9491 106.856 35.5938C106.362 35.2384 105.985 34.7574 105.725 34.1508C105.465 33.5354 105.335 32.7684 105.335 31.8498C105.335 30.9744 105.461 30.2421 105.712 29.6528C105.964 29.0634 106.328 28.5954 106.804 28.2488C107.29 27.8934 107.883 27.6378 108.585 27.4818C109.287 27.3258 110.085 27.2478 110.977 27.2478H115.917V26.5458C115.917 25.7658 115.779 25.1418 115.501 24.6738C115.233 24.2058 114.847 23.8678 114.344 23.6598C113.842 23.4431 113.239 23.3348 112.537 23.3348C111.965 23.3348 111.441 23.4301 110.964 23.6208C110.488 23.8114 110.085 24.1234 109.755 24.5568C109.435 24.9814 109.209 25.5578 109.079 26.2858L105.504 25.3108C105.669 24.4874 105.964 23.7941 106.388 23.2308C106.822 22.6588 107.35 22.2038 107.974 21.8658C108.598 21.5191 109.296 21.2678 110.067 21.1118C110.839 20.9471 111.658 20.8648 112.524 20.8648C114.05 20.8648 115.337 21.0598 116.385 21.4498C117.434 21.8398 118.227 22.4638 118.764 23.3218C119.31 24.1711 119.583 25.3064 119.583 26.7278V36.4258H116.541L116.229 34.5798C116.099 34.8138 115.887 35.0478 115.592 35.2818C115.298 35.5071 114.925 35.7194 114.474 35.9188C114.032 36.1181 113.521 36.2784 112.94 36.3998C112.36 36.5211 111.718 36.5818 111.016 36.5818ZM111.835 34.2158C112.511 34.2158 113.122 34.1378 113.668 33.9818C114.214 33.8171 114.674 33.6048 115.046 33.3448C115.428 33.0848 115.701 32.8118 115.865 32.5258V29.2628H111.835C111.437 29.2628 111.064 29.2974 110.717 29.3668C110.379 29.4274 110.085 29.5444 109.833 29.7178C109.582 29.8911 109.387 30.1424 109.248 30.4718C109.11 30.7924 109.04 31.2084 109.04 31.7198C109.04 32.2311 109.11 32.6514 109.248 32.9808C109.387 33.3014 109.582 33.5528 109.833 33.7348C110.093 33.9081 110.392 34.0338 110.73 34.1118C111.068 34.1811 111.437 34.2158 111.835 34.2158ZM129.164 36.6078C127.89 36.6078 126.815 36.3348 125.94 35.7888C125.073 35.2428 124.64 34.2504 124.64 32.8118V23.5428H121.078V21.0208H124.64V17.5108H128.293V21.0208H133.181V23.5428H128.293V31.9928C128.293 32.8768 128.475 33.4574 128.839 33.7348C129.211 34.0121 129.731 34.1508 130.399 34.1508C131.04 34.1508 131.664 34.0424 132.271 33.8258V36.2698C131.283 36.4951 130.247 36.6078 129.164 36.6078ZM135.643 36.4258V21.0078H139.309V36.4258H135.643ZM135.643 16.5488H139.309V19.3048H135.643V16.5488ZM147.706 36.5818C146.822 36.5818 146.033 36.5081 145.34 36.3608C144.646 36.2048 144.048 35.9491 143.546 35.5938C143.052 35.2384 142.675 34.7574 142.415 34.1508C142.155 33.5354 142.025 32.7684 142.025 31.8498C142.025 30.9744 142.15 30.2421 142.402 29.6528C142.653 29.0634 143.017 28.5954 143.494 28.2488C143.979 27.8934 144.573 27.6378 145.275 27.4818C145.977 27.3258 146.774 27.2478 147.667 27.2478H152.607V26.5458C152.607 25.7658 152.468 25.1418 152.191 24.6738C151.922 24.2058 151.536 23.8678 151.034 23.6598C150.531 23.4431 149.929 23.3348 149.227 23.3348C148.655 23.3348 148.13 23.4301 147.654 23.6208C147.177 23.8114 146.774 24.1234 146.445 24.5568C146.124 24.9814 145.899 25.5578 145.769 26.2858L142.194 25.3108C142.358 24.4874 142.653 23.7941 143.078 23.2308C143.511 22.6588 144.04 22.2038 144.664 21.8658C145.288 21.5191 145.985 21.2678 146.757 21.1118C147.528 20.9471 148.347 20.8648 149.214 20.8648C150.739 20.8648 152.026 21.0598 153.075 21.4498C154.123 21.8398 154.916 22.4638 155.454 23.3218C156 24.1711 156.273 25.3064 156.273 26.7278V36.4258H153.231L152.919 34.5798C152.789 34.8138 152.576 35.0478 152.282 35.2818C151.987 35.5071 151.614 35.7194 151.164 35.9188C150.722 36.1181 150.21 36.2784 149.63 36.3998C149.049 36.5211 148.408 36.5818 147.706 36.5818ZM148.525 34.2158C149.201 34.2158 149.812 34.1378 150.358 33.9818C150.904 33.8171 151.363 33.6048 151.736 33.3448C152.117 33.0848 152.39 32.8118 152.555 32.5258V29.2628H148.525C148.126 29.2628 147.753 29.2974 147.407 29.3668C147.069 29.4274 146.774 29.5444 146.523 29.7178C146.271 29.8911 146.076 30.1424 145.938 30.4718C145.799 30.7924 145.73 31.2084 145.73 31.7198C145.73 32.2311 145.799 32.6514 145.938 32.9808C146.076 33.3014 146.271 33.5528 146.523 33.7348C146.783 33.9081 147.082 34.0338 147.42 34.1118C147.758 34.1811 148.126 34.2158 148.525 34.2158ZM159.231 36.4258V16.0158H162.884V36.4258H159.231ZM176.471 36.5298C173.706 36.5298 171.782 35.7888 170.699 34.3068C169.615 32.8161 169.074 30.5801 169.074 27.5988C169.074 24.5828 169.628 22.3511 170.738 20.9038C171.847 19.4478 173.862 18.7198 176.783 18.7198C179.539 18.7198 181.45 19.3784 182.516 20.6958C183.59 22.0131 184.154 23.5731 184.206 25.3758H180.514C180.444 23.8678 180.119 22.8018 179.539 22.1778C178.967 21.5538 178.052 21.2418 176.796 21.2418C175.496 21.2418 174.503 21.6274 173.819 22.3988C173.143 23.1614 172.805 24.9338 172.805 27.7158C172.805 30.2031 173.143 31.8758 173.819 32.7338C174.503 33.5831 175.504 34.0078 176.822 34.0078C178.044 34.0078 178.932 33.7521 179.487 33.2408C180.041 32.7294 180.353 31.8714 180.423 30.6668V29.7698H177.095V27.5728H184.206V36.4258H182.113L181.71 34.0468C180.99 35.6848 179.244 36.5124 176.471 36.5298ZM196.616 28.4308C196.616 26.4201 196.382 25.0811 195.914 24.4138C195.446 23.7464 194.774 23.4128 193.899 23.4128C192.902 23.4128 192.113 23.7551 191.533 24.4398C190.952 25.1244 190.662 25.9001 190.662 26.7668L189.258 25.8828C189.258 24.4788 189.804 23.2958 190.896 22.3338C191.996 21.3631 193.452 20.8778 195.264 20.8778C197.188 20.8778 198.501 21.4888 199.203 22.7108C199.913 23.9241 200.269 25.8308 200.269 28.4308H196.616ZM187.035 36.4258V21.0208H189.869L190.675 23.8158V36.4258H187.035ZM203.292 36.4258V21.0078H206.958V36.4258H203.292ZM203.292 16.5488H206.958V19.3048H203.292V16.5488ZM220.503 36.4258L220.256 34.0208V16.0158H223.896V36.4258H220.503ZM215.394 36.5168C213.401 36.5168 211.936 35.8408 211 34.4888C210.064 33.1368 209.596 31.2041 209.596 28.6908C209.596 26.1688 210.064 24.2361 211 22.8928C211.936 21.5494 213.401 20.8778 215.394 20.8778C217.162 20.8778 218.683 21.3068 219.957 22.1648C221.231 23.0141 221.868 23.9328 221.868 24.9208L220.256 26.5978C220.256 25.7311 219.901 24.9814 219.19 24.3488C218.48 23.7161 217.63 23.3998 216.642 23.3998C215.594 23.3998 214.77 23.7638 214.172 24.4918C213.583 25.2198 213.288 26.6238 213.288 28.7038C213.288 30.7924 213.583 32.2008 214.172 32.9288C214.77 33.6568 215.594 34.0208 216.642 34.0208C217.63 34.0208 218.48 33.7044 219.19 33.0718C219.901 32.4304 220.256 31.6721 220.256 30.7968L221.868 32.4998C221.868 33.4878 221.231 34.4064 219.957 35.2558C218.683 36.0964 217.162 36.5168 215.394 36.5168Z" fill="white"/>
<path fill-rule="evenodd" clip-rule="evenodd" d="M3.66826 0.425781L55.833 0.425781C57.7095 0.425781 59.2307 2.13831 59.2307 4.25083V51.0998C59.2307 53.2123 57.7095 54.9248 55.833 54.9248H3.66826C1.79174 54.9248 0.270508 53.2123 0.270508 51.0998L0.270508 4.25083C0.270508 2.13831 1.79174 0.425781 3.66826 0.425781ZM42.0639 1.81178L42.0639 1.81183C42.2238 1.93244 42.3837 2.05305 42.5093 2.20869C43.9209 3.95752 45.3273 5.71189 46.7336 7.46625C50.1541 11.7332 53.5746 16.0001 57.0706 20.187C58.0392 21.347 57.9474 22.4918 57.8481 23.7314L57.8481 23.7315C57.8292 23.9668 57.8101 24.2055 57.7979 24.4483L41.6614 1.8932L41.8439 1.6397C41.9149 1.69942 41.9894 1.7556 42.0639 1.81178ZM10.9793 11.2353C11.2007 11.0885 11.4217 10.941 11.6428 10.7935C12.1187 10.476 12.5946 10.1585 13.074 9.84767C13.7073 9.43705 14.3406 9.02627 14.9739 8.61549L14.9765 8.61386C18.3348 6.4355 21.6932 4.25713 25.0636 2.1027C25.4605 1.84898 25.9642 1.69441 26.4203 1.68842C29.0673 1.65395 31.7147 1.66169 34.362 1.66943L35.1354 1.67165L35.1764 1.67174C35.4743 1.67232 35.7979 1.67295 36.0571 1.80346C38.899 3.2344 41.3111 5.24763 42.9016 8.34307C42.9544 8.4457 42.9944 8.55706 43.034 8.66744L43.0413 8.68767C43.046 8.70076 43.0401 8.71873 43.027 8.758C43.0183 8.7841 43.0065 8.81961 42.9927 8.86935C42.9205 8.78054 42.8514 8.69488 42.7842 8.61158C42.6458 8.43991 42.5154 8.27823 42.3823 8.11949C39.4062 4.57188 35.8139 2.3978 31.4343 2.28727C30.2065 2.25631 28.8917 2.66659 27.7438 3.2129C23.8547 5.06373 19.9893 6.97776 16.124 8.89179L16.1234 8.89205C14.6824 9.60562 13.2413 10.3192 11.7991 11.0295C11.6275 11.1139 11.4528 11.1903 11.2781 11.2667C11.197 11.3021 11.116 11.3376 11.0352 11.3738L10.9793 11.2353ZM43.0425 25.9269C43.0218 26.0086 43.0009 26.1045 42.978 26.2096L42.978 26.2097C42.8909 26.61 42.7747 27.1439 42.5245 27.5371C41.0994 29.7765 40.1773 32.3667 39.5673 35.0345C38.9464 37.7506 38.5101 38.5913 36.9534 38.1542C34.9601 37.5944 33.6372 36.055 32.5879 34.1875C30.6315 30.7055 28.6912 27.212 26.751 23.7185L26.7506 23.7178L26.7502 23.7171L26.7498 23.7164L26.7494 23.7157L26.749 23.715L26.7487 23.7143L26.7483 23.7137L26.7479 23.713L26.7475 23.7123L26.7471 23.7116L26.7467 23.7109L26.7464 23.7102L26.746 23.7095L26.7456 23.7089L26.7452 23.7082L26.7448 23.7075L26.7444 23.7068L26.7441 23.7061L26.7437 23.7054L26.7433 23.7047L26.7429 23.704L26.7425 23.7034L26.7421 23.7027L26.7418 23.702L26.7414 23.7013L26.741 23.7006L26.7406 23.6999C25.7059 21.8369 24.6712 19.9739 23.634 18.1126C23.4761 17.8291 23.3229 17.5417 23.1911 17.2417C22.7993 16.3497 22.4772 15.336 22.4119 14.3495C22.3121 12.8445 23.3317 12.0234 24.5969 12.5225C26.1396 13.131 27.6572 13.8212 29.1743 14.511C29.5295 14.6726 29.8848 14.8342 30.2403 14.9946C30.7828 15.2395 31.3256 15.4834 31.8685 15.7272L31.8693 15.7276L31.8693 15.7276L31.8693 15.7276L31.8693 15.7276C33.9964 16.6832 36.1237 17.6388 38.2276 18.6556C40.5772 19.7912 42.0735 21.8476 42.8705 24.5638C42.9216 24.7382 42.9491 24.9231 42.9724 25.1056C42.9904 25.2463 43.001 25.3882 43.0155 25.5804L43.0155 25.5809C43.023 25.6805 43.0315 25.7935 43.0425 25.9269ZM1.50333 52.3611V50.1755C1.50333 49.6927 1.89535 49.3267 2.31572 49.4221C2.47761 49.4589 2.63909 49.496 2.80027 49.5331L2.80032 49.5331L2.80037 49.5331L2.80041 49.5331C3.77346 49.7568 4.7354 49.978 5.70724 50.0971C7.08984 50.2666 8.49371 50.2796 9.88727 50.2615C18.4701 50.1501 27.0528 50.015 35.6355 49.8785C39.3774 49.819 43.1193 49.7529 46.8611 49.6869H46.8612H46.8613H46.8615H46.8616H46.8617H46.8618H46.8619H46.862H46.8621H46.8623H46.8624H46.8625H46.8626H46.8627H46.8628H46.8629H46.8631H46.8632H46.8633H46.8634H46.8635H46.8636H46.8637H46.8639H46.864H46.8641H46.8642C48.8792 49.6513 50.8942 49.6157 52.9092 49.5812C53.2717 49.575 53.6343 49.5804 54.0051 49.7053C52.6739 49.8633 51.3427 50.0206 50.0114 50.178C46.9315 50.542 43.8515 50.9061 40.7723 51.2781C39.5279 51.4285 38.2843 51.5877 37.0407 51.7468C34.8598 52.026 32.6789 52.3051 30.4941 52.5367C27.9468 52.8067 25.389 53.0728 22.8338 53.1022C17.9982 53.158 13.162 53.1474 8.32583 53.1369C6.40283 53.1327 4.47982 53.1285 2.55685 53.1285H2.18492C1.80845 53.1285 1.50333 52.7849 1.50333 52.3611ZM2.24028 39.1101C1.85614 38.9573 1.45427 39.2854 1.46038 39.744L1.46048 39.7516C1.47088 40.5345 1.48175 41.3523 1.43485 42.1659C1.39009 42.9431 1.65294 43.2861 2.2683 43.5803C4.88984 44.8334 7.66336 45.0504 10.4438 45.268L10.7937 45.2955C13.6435 45.5204 16.492 45.7641 19.3405 46.0078L19.341 46.0079L19.3416 46.0079L19.3421 46.008L19.3426 46.008L19.3431 46.0081L19.3436 46.0081L19.3441 46.0082L19.3447 46.0082L19.3452 46.0083L19.3457 46.0083L19.3462 46.0083L19.3467 46.0084L19.3472 46.0084L19.3478 46.0085L19.3484 46.0085L19.349 46.0086L19.3496 46.0086L19.3502 46.0087L19.3508 46.0087L19.3514 46.0088L19.3519 46.0088L19.3525 46.0089L19.3531 46.0089L19.3537 46.0089L19.3543 46.009L19.3548 46.009C20.0224 46.0662 20.6899 46.1233 21.3575 46.1801C23.2648 46.3426 25.172 46.5074 27.0792 46.6721L27.0873 46.6728L27.0959 46.6735L27.1044 46.6742L27.1055 46.6743L27.1065 46.6744L27.1076 46.6745L27.1087 46.6746L27.1098 46.6747L27.1108 46.6748L27.1119 46.6749L27.113 46.675L27.114 46.6751L27.1151 46.6751L27.1162 46.6752L27.1172 46.6753L27.1183 46.6754L27.1194 46.6755L27.1205 46.6756L27.1215 46.6757L27.1226 46.6758L27.1237 46.6759L27.1247 46.676L27.1258 46.6761L27.1269 46.6762L27.1279 46.6762L27.1294 46.6764L27.1308 46.6765L27.1322 46.6766L27.1336 46.6767C29.2136 46.8564 31.2935 47.036 33.3736 47.2128C36.2128 47.454 39.0525 47.6868 41.8924 47.9193C43.2076 48.027 44.5231 48.1314 45.8386 48.2357C46.434 48.2829 47.0294 48.3302 47.6248 48.3777C47.1929 48.1613 46.7506 48.0694 46.3064 47.9897L44.7878 47.7174L44.785 47.717L44.7823 47.7165L44.7796 47.716L44.7768 47.7155L44.7741 47.715L44.7714 47.7145C39.3852 46.7487 33.999 45.7829 28.6122 44.821C26.8804 44.5118 25.1482 44.2052 23.416 43.8985C21.2992 43.5238 19.1823 43.1491 17.0662 42.7697C16.1657 42.6082 15.2635 42.4553 14.3613 42.3024L14.3611 42.3023C12.0024 41.9026 9.64349 41.5028 7.31348 40.9494C5.95304 40.6263 4.63332 40.0859 3.29309 39.5371C2.9439 39.3941 2.59333 39.2505 2.24028 39.1101ZM41.8355 45.8915C41.133 45.7038 40.4304 45.5168 39.7277 45.3299C38.1991 44.9232 36.6705 44.5165 35.1438 44.1011C26.2205 41.6732 17.2981 39.2412 8.37614 36.807C6.04838 36.1718 3.93123 35.0194 2.04175 33.3743C1.74044 33.1119 1.50646 32.5624 1.47896 32.1266C1.42685 31.2998 1.43381 30.4683 1.44339 29.5736C1.44857 29.0865 1.96575 28.8348 2.2817 29.1676C2.69722 29.6051 3.08504 30.0108 3.48585 30.3994C5.76775 32.6121 8.55409 33.6174 11.3493 34.6259L11.6003 34.7165C18.9284 37.3638 26.2511 40.0301 33.5738 42.6963L33.576 42.6971C36.1226 43.6244 38.6693 44.5516 41.2161 45.4781C41.3606 45.5306 41.5032 45.5895 41.6459 45.6484L41.646 45.6485L41.6462 45.6486L41.6463 45.6486L41.6465 45.6487L41.6466 45.6487L41.6468 45.6488L41.6469 45.6488L41.6471 45.6489L41.6472 45.649L41.6474 45.649L41.6475 45.6491L41.6477 45.6491L41.6478 45.6492L41.648 45.6492L41.6481 45.6493L41.6483 45.6494L41.6484 45.6494L41.6486 45.6495L41.6487 45.6495L41.6489 45.6496L41.649 45.6496L41.6492 45.6497L41.6493 45.6498L41.6494 45.6498L41.6496 45.6499C41.7166 45.6775 41.7837 45.7052 41.8509 45.7322L41.8355 45.8915ZM5.45347 23.0674C4.20738 21.205 3.40845 19.1794 3.9209 16.7151C3.99231 16.3719 3.64544 16.1035 3.40313 16.3269C2.09988 17.5287 1.5386 19.0405 1.90666 20.7019C2.19019 21.9819 2.62651 23.2849 3.25526 24.3892C4.92703 27.3256 7.4322 29.1588 10.2498 30.4542C14.0646 32.2081 17.887 33.9409 21.7094 35.6738L21.71 35.6741L21.712 35.675L21.714 35.6759L21.716 35.6768L21.7181 35.6777L21.7221 35.6796C23.4325 36.455 25.1429 37.2304 26.8526 38.0077C29.2855 39.1137 31.7178 40.221 34.1502 41.3283L34.1699 41.3373L37.3343 42.7778C37.2725 42.5807 37.1654 42.4911 37.0474 42.4264C35.3349 41.4865 33.6226 40.5465 31.9102 39.6065L31.9085 39.6055C24.9714 35.7973 18.0344 31.9891 11.0926 28.1918C8.89178 26.9879 6.92565 25.2677 5.45347 23.0674ZM33.0266 38.7939C32.935 38.7381 32.8431 38.683 32.7512 38.6279C32.3701 38.3994 31.989 38.1708 31.6318 37.8951C26.3552 33.8217 20.9444 29.9732 15.0893 27.0696C12.1416 25.6078 9.49562 23.7475 7.71438 20.8085C6.89969 19.4642 6.31747 18.0155 6.39912 16.3313C6.4658 14.9558 6.99492 13.9845 8.00762 13.4064C8.3008 13.239 8.64622 13.5624 8.5307 13.9088C7.94947 15.6519 8.38434 17.3227 9.19057 18.9474C10.3003 21.1837 11.9462 22.8413 13.8254 24.2359C19.1705 28.2027 24.5129 32.174 29.8553 36.1452L32.3571 38.0049C32.5335 38.136 32.7062 38.2735 32.8789 38.411L32.8791 38.4111L32.8792 38.4112L32.8792 38.4112L32.8793 38.4112L32.8793 38.4113L32.8794 38.4113L32.8794 38.4113L32.8794 38.4114L32.8795 38.4114L32.8795 38.4114L32.8796 38.4115L32.8796 38.4115L32.8797 38.4115L32.8797 38.4116L32.8798 38.4116L32.8798 38.4116L32.8799 38.4117L32.8799 38.4117L32.8799 38.4117L32.88 38.4118L32.88 38.4118L32.8801 38.4118L32.8801 38.4119C32.9605 38.4759 33.0409 38.5399 33.1217 38.6033L33.0266 38.7939ZM51.9051 47.4781C51.6004 47.582 51.3077 47.6818 51.0397 47.79C52.417 47.9388 53.9676 47.5806 55.422 46.7769C56.5759 46.1393 57.7546 45.2169 57.89 43.7765C58.0829 41.7231 58.2209 39.6359 57.2262 37.6056C54.517 32.0759 51.871 26.5069 49.2249 20.938L49.2249 20.9379L49.2249 20.9378C48.2183 18.8193 47.2117 16.7008 46.2016 14.5844C46.0675 14.3034 45.9305 14.0242 45.7935 13.7449L45.793 13.744C45.7303 13.6164 45.6677 13.4887 45.6054 13.3609C45.5466 13.6942 45.6175 13.9581 45.7183 14.2068C46.6075 16.3996 47.4981 18.5917 48.3887 20.7838L48.3895 20.7856L48.3902 20.7875L48.391 20.7894L48.3914 20.7903L48.3917 20.7912L48.3921 20.7922L48.3925 20.7931L48.3929 20.794L48.3932 20.795L48.3936 20.7959L48.394 20.7968L48.3944 20.7978L48.3948 20.7987L48.3951 20.7996C50.0224 24.8049 51.6496 28.8101 53.2685 32.8196C53.4898 33.3677 53.715 33.9145 53.9401 34.4615L53.9402 34.4615C54.7083 36.3274 55.4771 38.1948 56.0984 40.1213C56.9536 42.7735 56.1773 45.1473 54.0865 46.5182C53.4005 46.968 52.6196 47.2344 51.9051 47.4781ZM29.7316 34.5106C29.9745 34.7121 30.2174 34.9136 30.4599 35.1157L30.582 34.9588C30.5231 34.8962 30.4649 34.8327 30.4067 34.7692L30.4067 34.7691L30.4067 34.7691L30.4067 34.7691L30.4067 34.7691L30.4066 34.769L30.4066 34.769L30.4066 34.769L30.4066 34.769L30.4065 34.769L30.4065 34.7689L30.4065 34.7689L30.4065 34.7689L30.4064 34.7689L30.4064 34.7688L30.4064 34.7688L30.4064 34.7688L30.4064 34.7688L30.4063 34.7687L30.4063 34.7687L30.4063 34.7687C30.282 34.6329 30.1576 34.497 30.0262 34.3705L28.2389 32.6492L28.2374 32.6477C24.7426 29.2819 21.2479 25.9161 17.7481 22.5569C17.6362 22.4496 17.5241 22.3425 17.412 22.2353L17.4119 22.2353L17.4119 22.2353C15.9583 20.8463 14.5043 19.457 13.5669 17.5321C12.7531 15.8613 12.2064 14.1637 12.9874 12.4103C13.1377 12.0729 12.8353 11.6909 12.5163 11.8072C11.5357 12.1647 10.9347 13.0033 10.9063 14.2193C10.8853 15.1194 11.029 16.0852 11.3225 16.9218C12.0861 19.0987 13.5009 20.7349 15.1332 22.1278C18.6508 25.1298 22.1761 28.1205 25.7014 31.1112C26.5197 31.8054 27.338 32.4996 28.1561 33.1939C28.6783 33.6371 29.2049 34.0738 29.7314 34.5105L29.7315 34.5105L29.7315 34.5106L29.7316 34.5106ZM16.3846 10.2399L19.1223 9.26195L19.1231 9.26165L19.1239 9.26136C21.4285 8.43798 23.7331 7.61459 26.0383 6.79328C26.4365 6.65142 26.8373 6.51761 27.238 6.38382L27.2381 6.3838C28.0356 6.11754 28.8331 5.85132 29.6094 5.52171C31.5935 4.67934 33.5787 4.73461 35.5434 5.45691C39.2362 6.81449 42.2762 9.14831 44.1633 13.1054C44.2434 13.2731 44.3134 13.4478 44.3745 13.6252C44.3846 13.6545 44.3727 13.6935 44.3572 13.7441C44.3489 13.7713 44.3395 13.8019 44.332 13.8362C42.9242 11.4801 41.0833 9.70695 38.9102 8.34953C36.1403 6.61921 33.2872 6.32093 30.1789 7.1698C26.9907 8.04053 23.7701 8.76073 20.5494 9.48093C19.177 9.78783 17.8045 10.0947 16.4346 10.4133L16.3846 10.2399ZM46.5862 2.33597C45.8984 1.65438 45.2185 1.5847 44.2541 1.77902L57.9795 16.8315C57.9795 16.518 57.9751 16.2296 57.9709 15.9585C57.9622 15.39 57.9547 14.8977 57.9915 14.4097C58.0454 13.6958 57.8112 13.2482 57.3276 12.7843C53.7258 9.32945 50.138 5.8555 46.5862 2.33597ZM47.9967 46.4194C47.7859 46.4628 47.5751 46.5062 47.3658 46.5553L47.3135 46.6619C47.5106 46.6619 47.7078 46.665 47.905 46.668L47.9058 46.668C48.333 46.6745 48.7602 46.6811 49.186 46.657C53.015 46.4403 54.7019 43.5746 53.3615 39.5564C51.8494 35.0233 50.3274 30.4944 48.8054 25.9655L48.3345 24.5643C47.8727 23.1901 47.4059 21.818 46.9391 20.4459C46.7266 19.8214 46.5142 19.1969 46.3022 18.5722C46.9655 21.6892 47.7791 24.7459 48.5926 27.8024L48.6418 27.9873C48.9664 29.2069 49.2944 30.4253 49.6225 31.6438L49.6226 31.6442L49.6227 31.6446L49.6228 31.6451L49.6229 31.6455L49.6231 31.6459L49.6232 31.6464L49.6233 31.6468L49.6234 31.6472L49.6235 31.6477L49.6236 31.6481L49.6237 31.6485L49.6239 31.649L49.624 31.6494L49.6241 31.6498L49.6242 31.6503L49.6243 31.6507C50.4411 34.6844 51.2579 37.7181 52.0207 40.7689C52.6421 43.2543 51.5526 45.3186 49.3594 46.0768C48.916 46.2301 48.4566 46.3247 47.9972 46.4193L47.9972 46.4193L47.9971 46.4193L47.9971 46.4193L47.9971 46.4193L47.997 46.4193L47.997 46.4193L47.997 46.4193L47.9969 46.4194L47.9969 46.4194L47.9969 46.4194L47.9968 46.4194L47.9968 46.4194L47.9968 46.4194L47.9967 46.4194L47.9967 46.4194L47.9967 46.4194ZM44.3429 7.94804L44.3458 7.95254C45.0536 9.06591 45.7614 10.1793 46.4652 11.2958L46.5895 11.4929L46.5925 11.4977C50.2756 17.3402 53.9587 23.1827 57.6281 29.0361C57.8122 29.3298 57.9462 29.7229 57.9632 30.0782C58.0091 31.0339 57.9789 31.9941 57.8116 33.0344L43.2023 6.54122L43.3696 6.41599C43.6938 6.92688 44.0183 7.43746 44.3429 7.94804ZM1.49008 16.0945C1.46046 16.2048 1.43084 16.3152 1.39582 16.4214L1.61063 16.5558L12.0881 2.73938C12.3979 2.33072 12.1465 1.69427 11.6692 1.68909C11.2756 1.68481 10.9126 1.68969 10.5525 1.72825C10.2417 1.76158 9.83666 1.95811 9.67021 2.23156C7.00373 6.6123 4.3654 11.0148 1.73487 15.4232C1.61749 15.6199 1.55378 15.8572 1.49008 16.0945ZM16.6084 11.2978C16.9915 11.1871 17.2877 11.6593 17.0844 12.0413C16.5136 13.1135 16.6431 14.302 17.0106 15.5431C17.4914 17.1669 18.3883 18.4688 19.402 19.705C21.9913 22.8626 24.5708 26.0304 27.1503 29.1981L27.1514 29.1995L27.1533 29.2018L27.1552 29.2041L27.1571 29.2064L27.159 29.2088L27.1609 29.2111L27.1628 29.2134L27.1646 29.2157C27.8939 30.1112 28.6232 31.0068 29.3526 31.9021C29.4595 32.0333 29.5491 32.1827 29.5519 32.4266L28.7001 31.5028C28.0522 30.8002 27.4043 30.0976 26.7572 29.3941C25.9306 28.4957 25.1029 27.5987 24.2751 26.7016L24.275 26.7015L24.2748 26.7013L24.2747 26.7012L24.2745 26.701L24.2744 26.7009L24.2743 26.7007L24.2741 26.7006L24.274 26.7004L24.2738 26.7002L24.2737 26.7001L24.2735 26.6999L24.2734 26.6998L24.2716 26.6978L24.2713 26.6975L24.2711 26.6973C22.2034 24.4566 20.1357 22.2159 18.0876 19.9528C16.6302 18.3425 15.3658 16.5712 15.0804 14.1725C14.9265 12.8785 15.5195 11.6127 16.6084 11.2978ZM25.1882 10.1131L25.1882 10.1131L25.1881 10.1131L25.1881 10.1131L25.188 10.1131L25.1879 10.1131L25.1879 10.1131L25.1878 10.1131L25.1878 10.1131L25.1877 10.1131L25.1877 10.1131L25.1876 10.1131L25.1875 10.1132C24.1214 10.2269 23.0553 10.3406 21.9906 10.4651L21.9783 10.6187C22.022 10.622 22.0657 10.6265 22.1094 10.6309L22.1094 10.6309L22.1094 10.6309L22.1095 10.6309L22.1095 10.6309L22.1095 10.6309L22.1095 10.6309L22.1096 10.6309L22.1096 10.6309L22.1096 10.6309L22.1096 10.6309C22.204 10.6404 22.2985 10.65 22.3928 10.649C23.4992 10.6372 24.6058 10.6294 25.7123 10.6215H25.7123H25.7124H25.7124H25.7124H25.7124H25.7124C28.5077 10.6017 31.3029 10.5818 34.0967 10.4995C36.0659 10.4415 37.8743 10.9073 39.5678 11.9964C41.8003 13.4322 43.5895 15.3827 44.9542 17.8559L44.9008 17.7066L44.9008 17.7065C44.5911 16.8397 44.2774 15.9617 43.7706 15.2605C40.8301 11.191 37.3566 8.43374 32.3313 9.2289C29.9603 9.60407 27.5743 9.85858 25.1882 10.1131ZM5.30543 13.9209L11.542 7.3778C11.9813 6.91697 12.422 6.45793 12.8628 5.99889L12.8628 5.99888L12.8628 5.99887L12.8628 5.99887L12.8628 5.99886L12.8628 5.99886L12.8628 5.99885L12.8628 5.99885L12.8628 5.99884L12.8628 5.99883L12.8628 5.99883L12.8629 5.99881C13.9294 4.88807 14.9958 3.77733 16.0406 2.64137C16.6522 1.97633 17.4764 1.62899 18.3256 1.67768C18.423 1.68324 18.5206 1.68766 18.6187 1.69211L18.6187 1.69211L18.6687 1.69438C19.1918 1.71839 19.3964 2.47062 18.9753 2.82061L5.44161 14.0674L5.30543 13.9209ZM44.4366 44.924L44.3488 44.9234L44.3077 44.9232L44.2475 44.9231L44.2155 45.1467C44.453 45.1611 44.6907 45.1825 44.9285 45.204C45.4481 45.2509 45.9677 45.2977 46.4841 45.2704C48.9426 45.14 50.2325 43.3514 49.7373 40.6324C49.2775 38.1081 48.7656 35.5957 48.2537 33.0834L48.2536 33.0832C48.0354 32.0123 47.8172 30.9414 47.603 29.8695C47.2983 28.3447 46.9933 26.8199 46.6882 25.2952L46.3036 23.373C46.1764 23.5545 46.1592 23.7142 46.1789 23.8678C46.3727 25.3727 46.5635 26.8781 46.7544 28.3835L46.7544 28.3842C47.2501 32.2942 47.7457 36.2043 48.2937 40.1051C48.7069 43.0463 47.4866 44.8517 44.8421 44.9224C44.707 44.926 44.5718 44.925 44.4366 44.924ZM57.9773 8.83647L49.8857 1.90166C50.2171 1.87999 50.5483 1.83956 50.8777 1.79934C52.2348 1.63365 53.5627 1.47152 54.7611 2.6394C55.2839 3.149 55.8749 3.56906 56.4665 3.98962C56.8162 4.23821 57.1662 4.48698 57.5025 4.75452C57.7063 4.9167 57.9441 5.21283 57.956 5.46013C57.9924 6.2136 57.9874 6.96965 57.9818 7.81454C57.9796 8.14033 57.9773 8.47932 57.9773 8.83647ZM1.66385 11.4369L6.22546 1.67193C5.94184 1.67193 5.67746 1.67463 5.42636 1.67719L5.42633 1.67719C4.87702 1.6828 4.39129 1.68775 3.90682 1.6624C3.43499 1.63772 3.19406 1.83559 3.0305 2.33565C2.87934 2.79778 2.70046 3.25273 2.52178 3.70716C2.19076 4.54902 1.86046 5.38907 1.70842 6.26968C1.50704 7.43599 1.46987 8.63819 1.4327 9.8404C1.41664 10.3598 1.40057 10.8793 1.37127 11.3959L1.66385 11.4369ZM28.3305 28.9695L23.6513 22.4896C23.3681 22.0974 23.0765 21.7114 22.7849 21.3254C22.115 20.4385 21.445 19.5516 20.8764 18.5889C20.1318 17.3282 19.418 15.9626 19.0436 14.5266C18.6243 12.9182 19.3104 11.6597 20.5884 11.5487C20.8998 11.5216 21.0879 11.9185 20.9074 12.2055C19.4954 14.4502 20.7789 16.5604 21.9694 18.518C22.0728 18.6879 22.1754 18.8567 22.2756 19.0243C23.9734 21.8666 25.6808 24.7054 27.5615 27.3979C27.8225 27.7715 28.0606 28.1635 28.2988 28.5554C28.3587 28.6541 28.4187 28.7528 28.479 28.8513L28.3305 28.9695ZM45.6648 29.3652L45.4509 25.8344L45.1344 25.839C45.1344 27.2082 45.135 28.5773 45.1357 29.9465C45.1373 33.3469 45.139 36.7472 45.1305 40.1475C45.1257 42.0911 44.1752 43.1565 42.4407 43.2252C42.2593 43.2324 42.0776 43.2305 41.8959 43.2285H41.8957C41.8117 43.2276 41.7277 43.2267 41.6438 43.2267L41.6291 43.4883C41.8705 43.507 42.1131 43.5375 42.3556 43.568H42.3557H42.3557H42.3557H42.3558H42.3558H42.3558H42.3559H42.3559H42.3559H42.356H42.356H42.356C42.8904 43.6351 43.4247 43.7022 43.9477 43.6428C45.6535 43.4491 46.3893 42.4169 46.3286 40.4791C46.3078 39.8183 46.2642 39.1583 46.2206 38.4984L46.2206 38.4981L46.2206 38.498L46.2206 38.4978L46.2205 38.4977L46.2205 38.4976L46.2205 38.4974C46.2029 38.2312 46.1853 37.965 46.1693 37.6987C46.0018 34.9281 45.834 32.1576 45.6661 29.387L45.6648 29.3652ZM44.86 21.3683C43.994 19.1804 42.6563 17.4424 41.0009 15.954C39.1546 14.2939 36.9595 13.9136 34.744 13.5298L34.7119 13.5242C32.0715 13.0667 29.4334 12.5919 26.8048 11.9372C27.1687 11.9617 27.5326 11.9851 27.8965 12.0085C28.7102 12.0609 29.5239 12.1132 30.3368 12.1783C30.98 12.2297 31.6229 12.2896 32.2657 12.3496C33.2985 12.4458 34.3313 12.5421 35.3658 12.6033C38.6893 12.7999 41.1651 14.7292 43.169 17.5089C43.7092 18.2583 44.1295 19.1173 44.5498 19.9763C44.7412 20.3674 44.9326 20.7586 45.1353 21.1395L44.86 21.3683ZM57.9365 50.3981L57.9365 50.398C57.9596 50.3179 57.987 50.2226 58.0258 50.1182L45.9331 52.9503C49.6081 53.7596 52.9026 52.5063 56.1895 51.2559L56.1898 51.2558L56.1899 51.2558L56.19 51.2557L56.1901 51.2557C56.7338 51.0488 57.2773 50.8421 57.8223 50.6448C57.8703 50.6273 57.897 50.535 57.9365 50.3981ZM44.3124 29.404C44.2527 30.0018 44.1927 30.5995 44.1328 31.1973C43.9925 32.5955 43.8523 33.9938 43.7154 35.3925C43.6656 35.9014 43.6213 36.4112 43.5771 36.9209C43.4912 37.9093 43.4054 38.8977 43.2793 39.8795C43.0781 41.4458 42.13 42.185 40.7368 41.947C40.3528 41.8814 39.9767 41.758 39.5973 41.5001C39.6423 41.4955 39.6873 41.49 39.7324 41.4846C39.8288 41.4729 39.9253 41.4612 40.022 41.4576C41.4341 41.4064 42.0968 40.7865 42.3753 39.229C42.6486 37.7009 42.9197 36.1722 43.1907 34.6435L43.1912 34.6409L43.1917 34.6383L43.1921 34.6357C43.438 33.249 43.6838 31.8623 43.9314 30.476C43.9763 30.2246 44.0324 29.9756 44.0884 29.7267L44.0885 29.7264C44.1146 29.6107 44.1406 29.4951 44.1656 29.3791L44.3124 29.404ZM33.2426 14.6948C32.4193 14.4755 31.5961 14.2561 30.7791 14.0174L30.7311 14.2048C30.8024 14.2347 30.8734 14.2654 30.9444 14.2961L30.9446 14.2962L30.9446 14.2962C31.0984 14.3627 31.2522 14.4292 31.4085 14.4869C32.0462 14.7222 32.6828 14.9618 33.3194 15.2015L33.3198 15.2016L33.3199 15.2017L33.32 15.2017C34.8624 15.7823 36.4048 16.363 37.9634 16.8817C39.9272 17.5354 41.488 18.8047 42.7157 20.5848C43.1631 21.2335 43.5349 21.9484 43.9201 22.689L43.9201 22.689L43.9202 22.6891C44.0981 23.0313 44.2789 23.3789 44.4713 23.728C44.4446 23.6033 44.4235 23.4829 44.4032 23.367L44.4032 23.367L44.4032 23.3669C44.3617 23.1301 44.3234 22.9118 44.2467 22.7121C43.1418 19.8364 41.4205 17.4865 38.799 16.4249C36.996 15.6947 35.1193 15.1948 33.2426 14.6948ZM37.7617 39.7449C39.086 39.8076 39.737 39.0013 40.1791 37.7255C40.9372 35.538 41.7909 33.3927 42.7711 31.297L42.3733 32.7435L42.3622 32.7836C41.9298 34.3559 41.4974 35.9282 41.0643 37.5002C41.036 37.6028 41.0052 37.7046 40.9744 37.8064C40.9317 37.9473 40.889 38.0881 40.8532 38.2311C40.3802 40.119 39.3732 40.6304 37.7617 39.7449Z" fill="#EE2B2A"/>
</svg>
